<svg width="32" height="33" viewBox="0 0 32 33" fill="none" xmlns="http://www.w3.org/2000/svg">
<path d="M8.0013 16.3402C8.0013 14.0735 8.93464 12.0735 10.4013 10.7402M24.0013 16.3402C24.0013 18.6068 23.068 20.6068 21.6013 21.9402M29.3346 16.3402C29.3346 23.704 23.3651 29.6735 16.0013 29.6735C8.6375 29.6735 2.66797 23.704 2.66797 16.3402C2.66797 8.97637 8.6375 3.00684 16.0013 3.00684C23.3651 3.00684 29.3346 8.97637 29.3346 16.3402ZM18.668 16.3402C18.668 17.8129 17.4741 19.0068 16.0013 19.0068C14.5285 19.0068 13.3346 17.8129 13.3346 16.3402C13.3346 14.8674 14.5285 13.6735 16.0013 13.6735C17.4741 13.6735 18.668 14.8674 18.668 16.3402Z" stroke="white" stroke-width="1.33333" stroke-linecap="round" stroke-linejoin="round"/>
</svg>
