<svg width="800" height="800" viewBox="0 0 800 800" fill="none" xmlns="http://www.w3.org/2000/svg">
<g filter="url(#filter0_f_2774_10050)">
<rect x="150" y="150" width="500" height="500" rx="250" fill="url(#paint0_radial_2774_10050)" fill-opacity="0.12"/>
</g>
<g clip-path="url(#clip0_2774_10050)">
<path d="M400.863 413.228C401.098 412.148 402.164 411.464 403.243 411.7L491.338 430.91C501.156 433.051 507.379 442.745 505.239 452.563V452.563C503.098 462.381 493.403 468.604 483.585 466.463L411.123 450.662C401.41 448.544 395.253 438.953 397.371 429.24L400.863 413.228Z" fill="#0094FF"/>
<path d="M422.697 441.02C422.258 441.106 421.847 441.15 421.465 441.153C421.091 441.157 420.74 441.124 420.412 441.052C419.746 440.907 419.181 440.607 418.717 440.152C418.259 439.709 417.953 439.098 417.798 438.319C417.654 437.533 417.709 436.561 417.961 435.402C418.19 434.354 418.5 433.457 418.892 432.711C419.284 431.965 419.734 431.366 420.244 430.914C420.762 430.463 421.311 430.158 421.891 429.998C422.479 429.839 423.079 429.827 423.69 429.96C424.429 430.121 425.012 430.449 425.439 430.943C425.868 431.428 426.141 432.037 426.258 432.77C426.376 433.502 426.336 434.32 426.139 435.222C425.93 436.18 425.682 436.947 425.394 437.525C425.107 438.093 424.787 438.491 424.431 438.719C424.076 438.947 423.684 439.014 423.255 438.921C422.927 438.849 422.677 438.661 422.504 438.356C422.343 438.044 422.283 437.663 422.324 437.213L422.527 437.2C422.405 437.498 422.242 437.74 422.039 437.925C421.837 438.11 421.617 438.239 421.382 438.312C421.157 438.378 420.931 438.386 420.703 438.336C420.238 438.235 419.913 437.953 419.726 437.492C419.551 437.024 419.545 436.417 419.709 435.669C419.846 435.04 420.058 434.484 420.344 434.002C420.631 433.52 420.953 433.16 421.31 432.923C421.679 432.679 422.064 432.6 422.465 432.688C422.702 432.739 422.892 432.833 423.034 432.969C423.176 433.105 423.27 433.269 423.314 433.46C423.369 433.644 423.368 433.845 423.312 434.061L423.101 434.173L423.506 432.972L424.614 433.213C424.448 433.712 424.285 434.197 424.125 434.669C423.976 435.133 423.84 435.562 423.716 435.955C423.601 436.35 423.51 436.698 423.445 436.999C423.383 437.282 423.373 437.504 423.414 437.666C423.466 437.821 423.552 437.911 423.67 437.937C423.816 437.969 423.969 437.902 424.13 437.736C424.292 437.561 424.454 437.257 424.615 436.825C424.785 436.394 424.952 435.804 425.115 435.057C425.272 434.336 425.322 433.693 425.264 433.126C425.208 432.55 425.029 432.076 424.728 431.705C424.438 431.327 424.006 431.075 423.431 430.95C422.975 430.85 422.522 430.871 422.071 431.011C421.62 431.152 421.195 431.413 420.797 431.794C420.399 432.175 420.044 432.685 419.733 433.324C419.423 433.954 419.172 434.711 418.979 435.596C418.773 436.544 418.711 437.328 418.796 437.949C418.891 438.562 419.103 439.038 419.43 439.377C419.758 439.715 420.163 439.938 420.646 440.043C420.947 440.109 421.251 440.137 421.559 440.127C421.867 440.118 422.197 440.071 422.55 439.985L422.697 441.02ZM421.287 437.432C421.415 437.459 421.546 437.426 421.682 437.331C421.819 437.227 421.958 437.072 422.099 436.863C422.242 436.646 422.371 436.383 422.486 436.074C422.61 435.767 422.714 435.421 422.798 435.038C422.881 434.655 422.895 434.353 422.838 434.13C422.784 433.899 422.656 433.761 422.455 433.717C422.282 433.679 422.1 433.749 421.908 433.927C421.725 434.107 421.549 434.37 421.378 434.715C421.219 435.052 421.091 435.44 420.996 435.878C420.898 436.325 420.872 436.687 420.916 436.964C420.972 437.234 421.096 437.39 421.287 437.432ZM428.092 441.093L429.685 433.789L430.916 434.057L430.627 435.972L430.504 435.945C430.734 435.326 431.029 434.894 431.389 434.648C431.757 434.403 432.215 434.341 432.762 434.46L434.363 434.809L434.067 436.163L432.563 435.835C432.216 435.759 431.915 435.761 431.659 435.839C431.403 435.917 431.189 436.066 431.017 436.286C430.845 436.506 430.718 436.804 430.637 437.177L429.706 441.445L428.092 441.093ZM426.286 440.7L426.573 439.386L432.249 440.624L431.963 441.937L426.286 440.7ZM427.593 434.708L427.879 433.395L430.628 433.995L430.342 435.308L427.593 434.708ZM437.197 443.078L438.789 435.774L440.403 436.126L438.811 443.43L437.197 443.078ZM434.406 442.47L434.692 441.157L441.477 442.636L441.191 443.949L434.406 442.47ZM435.849 436.509L436.136 435.195L440.171 436.075L439.884 437.388L435.849 436.509ZM438.933 434.788L439.267 433.256L440.908 433.614L440.574 435.146L438.933 434.788ZM445.841 445.135C445.148 444.984 444.577 444.692 444.126 444.26C443.676 443.827 443.367 443.297 443.198 442.668C443.032 442.029 443.032 441.327 443.199 440.561C443.366 439.795 443.657 439.161 444.072 438.66C444.489 438.149 444.993 437.79 445.582 437.585C446.171 437.379 446.813 437.351 447.506 437.503C448.071 437.626 448.553 437.846 448.952 438.162C449.361 438.48 449.666 438.876 449.868 439.35C450.082 439.817 450.169 440.338 450.13 440.912L448.481 440.653C448.476 440.193 448.362 439.819 448.138 439.532C447.916 439.235 447.604 439.043 447.203 438.955C446.638 438.832 446.149 438.95 445.736 439.309C445.325 439.659 445.041 440.199 444.882 440.928C444.722 441.658 444.756 442.272 444.982 442.77C445.209 443.259 445.606 443.565 446.171 443.688C446.572 443.776 446.941 443.727 447.278 443.543C447.623 443.36 447.898 443.043 448.101 442.59L449.708 443.041C449.494 443.586 449.19 444.036 448.798 444.39C448.415 444.746 447.965 444.992 447.448 445.127C446.942 445.256 446.407 445.258 445.841 445.135ZM451.001 446.088L453.119 436.376L454.733 436.728L453.865 440.709L453.735 440.58C453.928 440.221 454.156 439.946 454.417 439.755C454.69 439.556 454.988 439.435 455.313 439.391C455.64 439.338 455.99 439.352 456.364 439.434C456.866 439.543 457.26 439.749 457.548 440.05C457.845 440.354 458.029 440.733 458.102 441.189C458.186 441.637 458.167 442.139 458.046 442.695L457.02 447.401L455.406 447.049L456.351 442.712C456.486 442.092 456.479 441.623 456.329 441.303C456.179 440.984 455.903 440.781 455.502 440.693C455.037 440.592 454.625 440.664 454.265 440.911C453.915 441.159 453.674 441.584 453.543 442.186L452.615 446.44L451.001 446.088ZM458.464 447.716L460.057 440.411L461.411 440.706L461.116 442.39L460.961 442.313C461.197 441.754 461.481 441.352 461.811 441.109C462.143 440.856 462.509 440.774 462.911 440.861C463.348 440.957 463.643 441.183 463.794 441.541C463.945 441.899 463.985 442.395 463.914 443.029L463.736 442.99C463.959 442.408 464.25 441.989 464.612 441.734C464.982 441.48 465.387 441.401 465.824 441.497C466.381 441.618 466.744 441.902 466.913 442.35C467.083 442.798 467.075 443.451 466.888 444.308L465.796 449.314L464.251 448.977L465.274 444.285C465.391 443.747 465.42 443.372 465.362 443.158C465.305 442.936 465.167 442.801 464.949 442.753C464.803 442.721 464.659 442.742 464.519 442.817C464.39 442.884 464.266 443.015 464.147 443.209C464.037 443.404 463.947 443.667 463.875 443.995L462.855 448.673L461.405 448.357L462.428 443.665C462.54 443.154 462.568 442.783 462.514 442.552C462.459 442.32 462.318 442.179 462.09 442.13C461.935 442.096 461.791 442.117 461.66 442.194C461.531 442.261 461.411 442.392 461.302 442.588C461.192 442.784 461.102 443.046 461.03 443.374L460.01 448.053L458.464 447.716ZM467.268 449.635L468.861 442.331L470.338 442.653L469.966 444.621L469.823 444.489C470.007 444.042 470.244 443.697 470.536 443.455C470.829 443.204 471.156 443.041 471.516 442.967C471.885 442.895 472.266 442.901 472.658 442.987C473.196 443.104 473.613 443.319 473.908 443.632C474.202 443.944 474.391 444.329 474.472 444.786C474.556 445.235 474.54 445.723 474.425 446.252L473.396 450.971L471.782 450.619L472.728 446.283C472.855 445.699 472.841 445.238 472.686 444.898C472.539 444.561 472.248 444.344 471.81 444.249C471.518 444.185 471.234 444.195 470.958 444.278C470.691 444.363 470.455 444.527 470.249 444.768C470.046 445.001 469.901 445.313 469.816 445.706L468.882 449.987L467.268 449.635ZM475.47 451.423L477.063 444.119L478.54 444.441L478.168 446.409L478.025 446.277C478.208 445.83 478.446 445.486 478.738 445.244C479.031 444.992 479.358 444.83 479.718 444.755C480.087 444.683 480.468 444.689 480.86 444.775C481.398 444.892 481.815 445.107 482.109 445.42C482.404 445.733 482.592 446.118 482.674 446.575C482.758 447.023 482.742 447.511 482.627 448.04L481.598 452.759L479.984 452.408L480.929 448.071C481.057 447.488 481.043 447.026 480.887 446.687C480.741 446.349 480.449 446.133 480.012 446.037C479.72 445.974 479.436 445.983 479.16 446.066C478.893 446.152 478.657 446.315 478.451 446.557C478.248 446.789 478.103 447.102 478.018 447.494L477.084 451.775L475.47 451.423Z" fill="white"/>
</g>
<path d="M403.083 412.432L491.178 431.642C500.591 433.695 506.558 442.99 504.505 452.403C502.453 461.816 493.158 467.783 483.745 465.73L411.283 449.929C401.975 447.899 396.074 438.708 398.104 429.4L401.596 413.387C401.734 412.755 402.327 412.34 402.957 412.412L403.083 412.432Z" stroke="#0076CC" stroke-width="1.5"/>
<g clip-path="url(#clip1_2774_10050)">
<path d="M394.823 387.217C394.83 387.085 394.877 386.958 394.958 386.853C395.038 386.748 395.148 386.669 395.274 386.628C395.399 386.586 395.535 386.583 395.662 386.619C395.789 386.655 395.903 386.729 395.988 386.83L411.177 404.137C411.269 404.242 411.326 404.374 411.339 404.513C411.352 404.653 411.321 404.793 411.25 404.914C411.179 405.034 411.072 405.13 410.944 405.186C410.815 405.243 410.673 405.257 410.536 405.228L402.292 403.453C401.826 403.352 401.342 403.378 400.89 403.528C400.438 403.677 400.034 403.946 399.721 404.304L394.179 410.663C394.086 410.769 393.963 410.842 393.827 410.874C393.69 410.905 393.547 410.893 393.418 410.839C393.289 410.784 393.181 410.691 393.108 410.571C393.035 410.452 393.001 410.312 393.012 410.172L394.823 387.217Z" fill="black" stroke="white" stroke-width="1.2" stroke-linecap="round" stroke-linejoin="round"/>
</g>
<defs>
<filter id="filter0_f_2774_10050" x="0" y="0" width="800" height="800" filterUnits="userSpaceOnUse" color-interpolation-filters="sRGB">
<feFlood flood-opacity="0" result="BackgroundImageFix"/>
<feBlend mode="normal" in="SourceGraphic" in2="BackgroundImageFix" result="shape"/>
<feGaussianBlur stdDeviation="75" result="effect1_foregroundBlur_2774_10050"/>
</filter>
<radialGradient id="paint0_radial_2774_10050" cx="0" cy="0" r="1" gradientUnits="userSpaceOnUse" gradientTransform="translate(400 400) rotate(90) scale(250)">
<stop stop-color="white"/>
<stop offset="1" stop-color="#999999"/>
</radialGradient>
<clipPath id="clip0_2774_10050">
<path d="M400.863 413.228C401.098 412.148 402.164 411.464 403.243 411.7L491.338 430.91C501.156 433.051 507.379 442.745 505.239 452.563V452.563C503.098 462.381 493.403 468.604 483.585 466.463L411.123 450.662C401.41 448.544 395.253 438.953 397.371 429.24L400.863 413.228Z" fill="white"/>
</clipPath>
<clipPath id="clip1_2774_10050">
<rect width="32" height="32" fill="white" transform="translate(392 379) rotate(26.6194)"/>
</clipPath>
</defs>
</svg>
